{"accessors" : [{"bufferView" : 0, "byteOffset" : 0, "componentType" : 5123, "count" : 12843, "type" : "SCALAR", "max" : [10589], "min" : [0]}, {"bufferView" : 1, "byteOffset" : 0, "componentType" : 5126, "count" : 10590, "type" : "VEC3", "max" : [6.403255939483643, 6.737068176269531, 7.620824813842773], "min" : [-6.034488201141357, -0.01601099967956543, -7.029338836669922], "name" : "POSITION"}, {"bufferView" : 1, "byteOffset" : 12, "componentType" : 5126, "count" : 10590, "type" : "VEC2", "max" : [0.9992640018463135, -0.00027799999224953353], "min" : [0.00027799999224953353, -0.9993600249290466], "name" : "TEXCOORD_0"}, {"bufferView" : 1, "byteOffset" : 20, "componentType" : 5126, "count" : 10590, "type" : "VEC3", "max" : [1.0000044107437134, 1.0000044107437134, 1.0000044107437134], "min" : [-1.0000044107437134, -1.0000044107437134, -1.0000044107437134], "name" : "NORMAL"}], "asset" : {"generator" : "Aspose.3D 22.12", "version" : "2.0"}, "buffers" : [{"uri" : "data:application/octet-stream;base64,", "byteLength" : 436672}], "bufferViews" : [{"buffer" : 0, "byteOffset" : 0, "byteLength" : 25688, "target" : 34963}, {"buffer" : 0, "byteOffset" : 25692, "byteLength" : 410976, "byteStride" : 32, "target" : 34962}], "meshes" : [{"primitives" : [{"attributes" : {"POSITION" : 1, "TEXCOORD_0" : 2, "NORMAL" : 3}, "indices" : 0, "mode" : 4}], "name" : ""}], "nodes" : [{"mesh" : 0, "name" : "Cottage_Free"}], "scene" : 0, "scenes" : [{"nodes" : [0]}]}